HIERARCHY
ROOT Hips
{
	OFFSET 0.000000 0.000000 0.000000 
	CHANNELS 6 Xposition Yposition Zposition Zrotation Xrotation Yrotation
	JOINT Spine
	{
		OFFSET -0.000000 8.280624 0.000000 
		CHANNELS 3 Zrotation Xrotation Yrotation
		JOINT Spine1
		{
			OFFSET -0.000000 24.860672 0.000000 
			CHANNELS 3 Zrotation Xrotation Yrotation
			JOINT Neck
			{
				OFFSET -0.000000 24.758574 2.250779 
				CHANNELS 3 Zrotation Xrotation Yrotation
				JOINT Head
				{
					OFFSET -0.000000 14.137651 -2.019665 
					CHANNELS 3 Zrotation Xrotation Yrotation
					End Site
					{
						OFFSET -0.000000 25.245806 0.000000 
					}
				}
			}
			JOINT LeftShoulder
			{
				OFFSET 4.021533 22.370487 -0.301823 
				CHANNELS 3 Zrotation Xrotation Yrotation
				JOINT LeftArm
				{
					OFFSET 12.928750 0.000000 0.000000 
					CHANNELS 3 Zrotation Xrotation Yrotation
					JOINT LeftForeArm
					{
						OFFSET 29.110218 0.000000 0.000000 
						CHANNELS 3 Zrotation Xrotation Yrotation
						JOINT LeftHand
						{
							OFFSET 26.112843 0.000000 0.000000 
							CHANNELS 3 Zrotation Xrotation Yrotation
							End Site
							{
								OFFSET 15.147485 0.000000 0.000000 
							}
						}
					}
				}
			}
			JOINT RightShoulder
			{
				OFFSET -4.040554 22.370487 -0.301823 
				CHANNELS 3 Zrotation Xrotation Yrotation
				JOINT RightArm
				{
					OFFSET -12.928750 0.000000 0.000000 
					CHANNELS 3 Zrotation Xrotation Yrotation
					JOINT RightForeArm
					{
						OFFSET -29.110218 0.000000 0.000000 
						CHANNELS 3 Zrotation Xrotation Yrotation
						JOINT RightHand
						{
							OFFSET -26.112843 0.000000 0.000000 
							CHANNELS 3 Zrotation Xrotation Yrotation
							End Site
							{
								OFFSET -15.147485 0.000000 0.000000 
							}
						}
					}
				}
			}
		}
	}
	JOINT LeftUpLeg
	{
		OFFSET 10.098323 0.000000 0.000000 
		CHANNELS 3 Zrotation Xrotation Yrotation
		JOINT LeftLeg
		{
			OFFSET -0.000000 -44.180832 0.000000 
			CHANNELS 3 Zrotation Xrotation Yrotation
			JOINT LeftFoot
			{
				OFFSET -0.000000 -40.401024 0.000000 
				CHANNELS 3 Zrotation Xrotation Yrotation
				JOINT LeftToeBase
				{
					OFFSET -0.000000 -6.563910 15.147485 
					CHANNELS 3 Zrotation Xrotation Yrotation
					End Site
					{
						OFFSET -0.000000 0.000000 4.039329 
					}
				}
			}
		}
	}
	JOINT RightUpLeg
	{
		OFFSET -10.098323 0.000000 0.000000 
		CHANNELS 3 Zrotation Xrotation Yrotation
		JOINT RightLeg
		{
			OFFSET -0.000000 -44.180832 0.000000 
			CHANNELS 3 Zrotation Xrotation Yrotation
			JOINT RightFoot
			{
				OFFSET -0.000000 -40.401024 0.000000 
				CHANNELS 3 Zrotation Xrotation Yrotation
				JOINT RightToeBase
				{
					OFFSET -0.000000 -6.563910 15.147485 
					CHANNELS 3 Zrotation Xrotation Yrotation
					End Site
					{
						OFFSET -0.000000 0.000000 4.039329 
					}
				}
			}
		}
	}
}
MOTION
Frames: 7
Frame Time: 0.008333
-53.065796 100.808784 -24.366570 -9.586694 30.056036 -164.328766 4.303278 13.279235 9.736046 -1.493227 -11.771999 10.083146 -1.472173 19.128305 -23.733715 13.019763 17.731522 -25.079964 0.194836 7.840498 -19.077555 -62.726173 11.910316 -33.643890 -30.938543 -16.038244 -90.496819 58.345921 -47.710812 -9.487882 -17.014820 -27.460899 23.114124 34.331329 38.059265 82.841415 -2.780085 -15.799126 26.895851 30.165962 -15.183917 -0.095897 -5.161969 30.970877 -36.945335 -0.147833 1.697894 -9.593796 -7.677065 21.236393 7.693310 0.000000 0.000000 0.000000 -7.852485 53.903927 -3.486879 -4.222821 20.003498 12.002935 15.578792 37.972469 -29.923435 0.000000 0.000000 0.000000 
-53.109795 100.880920 -24.617853 -9.612770 30.002989 -164.111908 4.466957 13.501329 10.011259 -1.749588 -11.761923 10.359947 -1.470819 18.474941 -24.058811 12.975483 17.725153 -25.410824 -0.130030 7.664163 -18.878616 -63.095116 10.551146 -33.200413 -28.174564 -16.238218 -92.138214 58.368999 -46.034309 -8.855222 -17.230509 -28.442726 22.991110 34.101360 37.983871 84.179153 -3.754292 -15.294444 28.427660 29.514894 -14.468552 -0.364495 -5.014743 31.241339 -37.530529 -0.046544 1.410494 -9.390990 -7.725178 21.356701 7.869386 0.000000 0.000000 0.000000 -7.454191 54.199982 -3.605232 -4.274157 19.618731 11.929568 15.639059 38.236977 -30.129160 0.000000 0.000000 0.000000 
-53.158890 100.958755 -24.878582 -9.595394 29.861834 -163.833557 4.597149 13.613317 10.265559 -1.860836 -12.220151 10.615256 -1.516467 19.012924 -24.308340 13.165269 17.220613 -25.625906 -0.810053 8.034357 -19.042187 -62.834824 9.229077 -32.810204 -25.581093 -17.238365 -93.739128 58.491135 -45.374462 -9.242213 -16.695360 -28.696152 23.634577 33.135685 37.824451 85.283142 -4.833937 -15.124606 30.091848 28.571634 -13.932675 -0.267698 -4.791639 31.427448 -38.224655 0.055306 1.106939 -9.129374 -7.758828 21.491875 7.982447 0.000000 0.000000 0.000000 -6.959380 54.430878 -3.978768 -4.312339 19.182526 11.963340 15.768793 38.490307 -30.311907 0.000000 0.000000 0.000000 
-53.202480 101.025681 -25.084703 -9.480796 29.629972 -163.648392 4.839154 13.778316 10.483896 -2.120754 -12.636020 10.833982 -1.504710 18.665407 -24.496996 12.951343 17.408989 -25.836918 -1.259614 8.014288 -18.839214 -62.544907 8.449512 -32.539703 -23.164572 -18.373026 -95.428047 58.852871 -44.691147 -9.001207 -16.537340 -29.292885 23.996397 32.199757 37.707443 86.695793 -6.038143 -15.082084 31.490776 27.836205 -13.486263 -0.228280 -4.535117 31.446835 -38.790615 0.134744 0.839436 -8.941742 -7.784049 21.598988 8.062975 0.000000 0.000000 0.000000 -6.489552 54.475170 -4.326673 -4.350087 18.808451 12.001929 15.851436 38.725170 -30.411055 0.000000 0.000000 0.000000 
-53.256279 101.097122 -25.291574 -9.331171 29.330677 -163.371841 5.131528 13.693049 10.665049 -2.392680 -12.817401 11.012683 -1.783114 18.942961 -24.654778 13.546429 16.912443 -25.966631 -1.654500 7.910426 -18.643232 -62.311935 7.055355 -32.345905 -21.186211 -18.875603 -96.820366 58.880035 -43.804573 -8.980852 -16.317699 -29.761673 24.548527 31.150534 37.276489 87.956627 -7.149185 -15.351169 32.932774 27.104530 -13.330232 -0.121333 -4.219080 31.370245 -39.463688 0.211430 0.617504 -8.765562 -7.791874 21.687145 8.123092 0.000000 0.000000 0.000000 -5.859613 54.444241 -4.857774 -4.386858 18.444458 11.967212 15.952805 39.007832 -30.489796 0.000000 0.000000 0.000000 
-53.303677 101.178146 -25.495321 -9.133530 29.050940 -163.060944 5.450658 13.614257 10.835142 -2.644183 -13.018935 11.184393 -1.898257 18.982080 -24.819811 13.776059 16.690516 -26.120575 -2.016611 7.675470 -18.535570 -62.059948 5.818563 -32.113594 -18.911808 -19.828058 -98.407227 58.926239 -42.181908 -7.023304 -16.322336 -30.200094 24.915817 30.259102 36.833630 89.115501 -8.285287 -15.790143 34.503063 26.440342 -13.321084 -0.109849 -3.817013 31.273720 -40.197567 0.264941 0.428534 -8.592064 -7.826769 21.753483 8.191170 0.000000 0.000000 0.000000 -5.141653 54.413345 -5.414788 -4.350878 18.070980 11.755889 16.084930 39.329674 -30.571159 0.000000 0.000000 0.000000 
-53.364502 101.265396 -25.709105 -8.970705 28.828962 -162.672424 5.811921 13.564485 10.958824 -2.974793 -13.165154 11.307137 -2.312515 19.466511 -24.941990 14.732719 16.041542 -26.200504 -2.235733 7.318991 -18.414850 -61.725006 5.935222 -32.123184 -15.366790 -22.563196 -99.761909 59.305717 -40.481392 -4.675433 -16.359549 -30.522160 25.259918 29.582949 36.236462 90.067482 -9.333332 -16.254423 36.196079 25.852676 -13.353447 -0.243265 -3.358069 31.248920 -40.997143 0.279408 0.183072 -8.478621 -7.883831 21.848154 8.311829 0.000000 0.000000 0.000000 -4.350118 54.455746 -6.339492 -4.428664 17.646788 11.683613 16.226261 39.677570 -30.571295 0.000000 0.000000 0.000000 
